<svg width="200" height="200" viewBox="0 0 200 200" fill="none" xmlns="http://www.w3.org/2000/svg">
  <rect width="200" height="200" fill="#F8FAFC"/>
  <path d="M100 60C77.9086 60 60 77.9086 60 100C60 122.091 77.9086 140 100 140C122.091 140 140 122.091 140 100C140 77.9086 122.091 60 100 60ZM100 130C83.4315 130 70 116.569 70 100C70 83.4315 83.4315 70 100 70C116.569 70 130 83.4315 130 100C130 116.569 116.569 130 100 130Z" fill="#CBD5E1"/>
  <path d="M100 85C91.7157 85 85 91.7157 85 100C85 108.284 91.7157 115 100 115C108.284 115 115 108.284 115 100C115 91.7157 108.284 85 100 85Z" fill="#CBD5E1"/>
  <rect x="40" y="155" width="120" height="10" rx="5" fill="#CBD5E1"/>
</svg>
